<?xml version="1.0" encoding="iso-8859-1"?>
<!-- Generator: Adobe Illustrator 17.1.0, SVG Export Plug-In . SVG Version: 6.00 Build 0)  -->
<!DOCTYPE svg PUBLIC "-//W3C//DTD SVG 1.0//EN" "http://www.w3.org/TR/2001/REC-SVG-20010904/DTD/svg10.dtd">
<svg version="1.0" id="Layer_1" xmlns="http://www.w3.org/2000/svg" xmlns:xlink="http://www.w3.org/1999/xlink" x="0px" y="0px"
	 viewBox="0 0 283.172 247.595" style="enable-background:new 0 0 283.172 247.595;" xml:space="preserve" width="283" height="247">
<g>
	<path style="fill:#72D54A;" d="M224.845,213.996c-55.703,7.639-110.91,7.62-166.515,0.015c0,3.919,0.023,7.033-0.004,10.146
		c-0.119,13.516-9.6,22.924-23.083,23.332c-9.149,0.277-17.104-1.815-22.671-9.654c-2.626-3.698-3.983-7.836-3.927-12.426
		c0.058-4.774-0.056-9.551,0.046-14.324c0.041-1.921-0.417-3.137-2.248-4.185c-3.757-2.151-5.82-5.591-6.167-9.964
		c-0.12-1.506-0.239-3.018-0.24-4.528C0.02,167.019,0.059,141.629,0,116.24c-0.015-6.611,1.558-12.144,8.064-15.37
		c1.055-0.523,1.625-2.398,2.051-3.763c8.406-26.968,16.7-53.97,25.143-80.926C39.768,1.779,42.365,0,57.456,0
		c56.718,0,113.436,0,170.155,0.001c1.281,0,2.563,0.055,3.842,0.023c7.259-0.181,11.954,3.43,14.229,10.084
		c2.969,8.684,5.703,17.449,8.439,26.211c6.376,20.418,12.652,40.867,19.111,61.259c0.488,1.541,1.871,3.066,3.243,4.008
		c3.58,2.46,5.851,5.613,6.386,9.929c0.2,1.612,0.274,3.249,0.275,4.875c0.017,25.389-0.021,50.779,0.034,76.168
		c0.014,6.309-1.376,11.74-7.399,15.091c-0.729,0.406-1.175,1.893-1.201,2.894c-0.123,4.772-0.043,9.549-0.058,14.324
		c-0.036,11.387-7.498,20.488-18.75,22.166c-8.35,1.245-16.565,0.811-23.35-5.308c-5.046-4.551-7.434-10.305-7.559-17.035
		C224.795,221.448,224.845,218.204,224.845,213.996z M247.292,99.62c-1.7-7.986-3.345-15.923-5.085-23.838
		c-3.468-15.777-6.579-31.647-10.613-47.279C228.3,15.74,225.473,14.14,212.379,14.14c-47.267-0.002-94.533-0.005-141.8,0.013
		c-2.323,0.001-4.646,0.181-6.967,0.301c-4.237,0.219-7.4,2.258-8.994,6.13c-1.763,4.283-3.546,8.637-4.567,13.131
		c-3.682,16.208-7.053,32.488-10.531,48.742c-1.227,5.736-2.426,11.477-3.637,17.216c0.353,0.294,0.706,0.589,1.06,0.883
		c1.051-0.798,2.7-1.388,3.062-2.426c3.934-11.265,12.477-17.614,22.993-21.856c0.945-0.381,2.51-0.134,3.412,0.425
		c11.415,7.076,22.761,7.108,34.187,0.043c0.846-0.523,2.231-0.894,3.082-0.576c9.932,3.714,18.037,9.621,22.465,19.633
		c2.05,4.637,1.966,4.674,6.325,4.086c1.272-2.678,1.773-5.377,3.393-6.819c4.034-3.589,8.521-6.685,12.936-9.825
		c2.827-2.01,5.576-1.787,7.924,1.163c-3.394,4.618-6.399,9.464-7.189,15.799c2.451-0.92,5.417,1.625,6.622-1.985
		c3.737-11.194,12.162-17.545,22.549-21.786c1.119-0.457,2.964-0.201,4.034,0.447c11.361,6.889,22.602,6.856,33.9-0.113
		c0.853-0.526,2.24-0.942,3.076-0.622c10.607,4.066,19.282,10.347,23.152,21.589C243.713,100.195,244.948,100.404,247.292,99.62z
		 M47.721,165.045c10.612,0.112,17.697-8.048,15.811-18.561c-2.128-11.864-9.368-19.567-20.675-23.099
		c-11.887-3.713-22.104,3.441-22.013,14.912C20.949,151.668,34.248,164.903,47.721,165.045z M235.47,165.114
		c11.997-0.074,24.342-10.867,26.348-23.037c2.195-13.316-7.087-22.281-20.158-19.06c-11.374,2.802-18.68,10.303-21.501,21.588
		C217.271,156.156,224.272,165.183,235.47,165.114z"/>
	<path style="fill:#72D54A;" d="M83.469,75.64C70.266,75.641,59.722,65.15,59.681,51.973C59.64,38.727,70.393,27.932,83.603,27.958
		c13.199,0.026,23.792,10.797,23.757,24.157C107.326,65.235,96.76,75.64,83.469,75.64z"/>
	<path style="fill:#72D54A;" d="M199.388,75.64c-13.323-0.047-23.647-10.634-23.575-24.175
		c0.069-12.981,10.979-23.647,24.043-23.507c13.088,0.14,23.678,10.879,23.63,23.962C223.436,65.247,212.83,75.688,199.388,75.64z"
		/>
	<path style="fill:#72D54A;" d="M107.434,70.356c6.823-9.58,8.073-19.94,3.251-31.782c2.909,0.265,5.405,0.218,7.767,0.757
		c8.226,1.876,14.522,8.95,15.903,17.561c1.286,8.024-2.942,16.82-10.076,21.164c-1.796,1.094-3.098,1.108-4.962-0.243
		C115.591,75.112,111.524,72.882,107.434,70.356z"/>
	<path style="fill:#72D54A;" d="M172.219,39.173c-4.517,11.124-3.403,21.5,3.495,31.086c-4.454,2.856-8.788,5.703-13.216,8.395
		c-0.607,0.369-1.789,0.209-2.526-0.113c-8.385-3.674-13.181-14.682-10.633-24.237c2.516-9.435,12.262-16.52,21.448-15.574
		C171.212,38.774,171.621,38.983,172.219,39.173z"/>
	<path style="fill:#72D54A;" d="M138.208,81.934c-2.761,2.614-5.356,5.071-8.086,7.655c-1.262-1.787-2.45-3.471-3.634-5.147
		C132.991,78.599,133.167,78.559,138.208,81.934z"/>
</g>
</svg>
